<svg id="visual" viewBox="0 0 900 600" width="900" height="600" xmlns="http://www.w3.org/2000/svg" xmlns:xlink="http://www.w3.org/1999/xlink" version="1.1"><rect x="0" y="0" width="900" height="600" fill="#ffffff"></rect><path d="M0 143L13.7 143.2C27.3 143.3 54.7 143.7 82 136.5C109.3 129.3 136.7 114.7 163.8 105C191 95.3 218 90.7 245.2 91C272.3 91.3 299.7 96.7 327 100.5C354.3 104.3 381.7 106.7 409 103.2C436.3 99.7 463.7 90.3 491 89C518.3 87.7 545.7 94.3 573 102.3C600.3 110.3 627.7 119.7 654.8 120.8C682 122 709 115 736.2 108.7C763.3 102.3 790.7 96.7 818 97.3C845.3 98 872.7 105 886.3 108.5L900 112L900 0L886.3 0C872.7 0 845.3 0 818 0C790.7 0 763.3 0 736.2 0C709 0 682 0 654.8 0C627.7 0 600.3 0 573 0C545.7 0 518.3 0 491 0C463.7 0 436.3 0 409 0C381.7 0 354.3 0 327 0C299.7 0 272.3 0 245.2 0C218 0 191 0 163.8 0C136.7 0 109.3 0 82 0C54.7 0 27.3 0 13.7 0L0 0Z" fill="#ffbab5"></path><path d="M0 70L13.7 73.8C27.3 77.7 54.7 85.3 82 83.5C109.3 81.7 136.7 70.3 163.8 70.3C191 70.3 218 81.7 245.2 83.2C272.3 84.7 299.7 76.3 327 69.8C354.3 63.3 381.7 58.7 409 62.2C436.3 65.7 463.7 77.3 491 79.7C518.3 82 545.7 75 573 68.8C600.3 62.7 627.7 57.3 654.8 55.2C682 53 709 54 736.2 62.2C763.3 70.3 790.7 85.7 818 90.5C845.3 95.3 872.7 89.7 886.3 86.8L900 84L900 0L886.3 0C872.7 0 845.3 0 818 0C790.7 0 763.3 0 736.2 0C709 0 682 0 654.8 0C627.7 0 600.3 0 573 0C545.7 0 518.3 0 491 0C463.7 0 436.3 0 409 0C381.7 0 354.3 0 327 0C299.7 0 272.3 0 245.2 0C218 0 191 0 163.8 0C136.7 0 109.3 0 82 0C54.7 0 27.3 0 13.7 0L0 0Z" fill="#ff91a4"></path><path d="M0 31L13.7 31.2C27.3 31.3 54.7 31.7 82 37C109.3 42.3 136.7 52.7 163.8 51.8C191 51 218 39 245.2 37.5C272.3 36 299.7 45 327 46.2C354.3 47.3 381.7 40.7 409 36.8C436.3 33 463.7 32 491 31.8C518.3 31.7 545.7 32.3 573 33.2C600.3 34 627.7 35 654.8 38.5C682 42 709 48 736.2 50.8C763.3 53.7 790.7 53.3 818 54.7C845.3 56 872.7 59 886.3 60.5L900 62L900 0L886.3 0C872.7 0 845.3 0 818 0C790.7 0 763.3 0 736.2 0C709 0 682 0 654.8 0C627.7 0 600.3 0 573 0C545.7 0 518.3 0 491 0C463.7 0 436.3 0 409 0C381.7 0 354.3 0 327 0C299.7 0 272.3 0 245.2 0C218 0 191 0 163.8 0C136.7 0 109.3 0 82 0C54.7 0 27.3 0 13.7 0L0 0Z" fill="#ff64a4"></path></svg>