<svg id="visual" viewBox="0 0 900 450" width="900" height="450" xmlns="http://www.w3.org/2000/svg" xmlns:xlink="http://www.w3.org/1999/xlink" version="1.1"><path d="M0 394L18.8 397.2C37.7 400.3 75.3 406.7 112.8 400.2C150.3 393.7 187.7 374.3 225.2 373.7C262.7 373 300.3 391 337.8 394.5C375.3 398 412.7 387 450.2 378C487.7 369 525.3 362 562.8 367C600.3 372 637.7 389 675.2 394.3C712.7 399.7 750.3 393.3 787.8 385.7C825.3 378 862.7 369 881.3 364.5L900 360L900 451L881.3 451C862.7 451 825.3 451 787.8 451C750.3 451 712.7 451 675.2 451C637.7 451 600.3 451 562.8 451C525.3 451 487.7 451 450.2 451C412.7 451 375.3 451 337.8 451C300.3 451 262.7 451 225.2 451C187.7 451 150.3 451 112.8 451C75.3 451 37.7 451 18.8 451L0 451Z" fill="#427cd4" stroke-linecap="round" stroke-linejoin="miter"></path></svg>